<svg width="32" height="32" viewBox="0 0 32 32" fill="none" xmlns="http://www.w3.org/2000/svg">
<path d="M32.0003 -0.00219727H0V31.9981H32.0003V-0.00219727Z" fill="#19AA1E"/>
<path fill-rule="evenodd" clip-rule="evenodd" d="M0 -0.00219727H32.0003V10.4979L0 5.49785V-0.00219727Z" fill="#FFB919"/>
<path fill-rule="evenodd" clip-rule="evenodd" d="M0 28.4981L32.0003 23.498V31.9981H0V28.4981Z" fill="#82D714"/>
<path fill-rule="evenodd" clip-rule="evenodd" d="M0 4.86539L11.1699 6.61065C12.5604 5.73049 14.2146 5.24794 16.0001 5.24794C18.4732 5.24794 20.6943 6.1737 22.3116 7.79931C22.5157 8.00446 22.7082 8.21897 22.8887 8.44172L32.0003 9.86538V11.1305L23.814 9.85148C24.4221 11.0186 24.7502 12.319 24.7502 13.646C24.7502 15.3604 24.3667 17.0698 23.5741 18.786L23.5499 18.838L23.2132 19.5594H22.4171C20.7733 19.5594 19.6828 20.0512 18.9699 20.9226C18.4101 21.6069 18.0864 22.5293 17.9775 23.5357L17.9742 23.5672L17.9583 23.728L17.9515 23.7979L17.9386 23.9348C17.8969 24.3841 17.869 24.7652 17.8549 25.0758L32.0003 22.8655V24.1306L0 29.1307V27.8655L14.1614 25.6528L14.1551 25.3688L14.1533 25.2887L14.1521 25.2476L14.1499 25.1842C14.1371 24.8398 14.1056 24.3983 14.055 23.8632L14.0453 23.7618L14.028 23.5861C13.9264 22.5743 13.6075 21.6402 13.0492 20.9458C12.3438 20.0684 11.2633 19.5695 9.63268 19.5596L9.58313 19.5594H8.78702L8.45037 18.838C7.64132 17.1043 7.25006 15.3778 7.25006 13.646C7.25006 11.4682 8.13357 9.36237 9.68863 7.79931C9.73353 7.75421 9.77888 7.70961 9.82468 7.66561L0 6.1305V4.86539Z" fill="white"/>
<path fill-rule="evenodd" clip-rule="evenodd" d="M16.0001 6.49789C20.4676 6.49789 23.5001 9.93657 23.5001 13.646C23.5001 15.1352 23.1752 16.6848 22.4171 18.3093C18.021 18.3093 16.9359 21.4576 16.7308 23.4384L16.7176 23.5704C16.6481 24.2773 16.6079 24.8446 16.5969 25.2723L15.4062 25.4583L15.4059 25.4198C15.4014 24.9715 15.3591 24.3427 15.2789 23.5333L15.2753 23.498C15.0858 21.5215 14.0235 18.3093 9.58306 18.3093C8.8249 16.6848 8.5 15.1352 8.5 13.646C8.5 9.93657 11.5325 6.49789 16.0001 6.49789Z" fill="#0073FA"/>
</svg>
