<svg width="136" height="26" viewBox="0 0 136 26" fill="none" xmlns="http://www.w3.org/2000/svg">
<path fill-rule="evenodd" clip-rule="evenodd" d="M39.2864 6.39972C39.9901 6.39972 40.7013 6.46628 41.4196 6.59944C42.138 6.73283 42.7098 6.92512 43.1349 7.17673C43.267 7.23606 43.3513 7.29904 43.3879 7.3656C43.4246 7.4322 43.4503 7.54685 43.4648 7.70979L43.7067 10.1968C43.7067 10.2412 43.67 10.267 43.5969 10.2744C43.5236 10.2818 43.4796 10.2633 43.4648 10.2189C43.1423 9.07901 42.5448 8.239 41.6725 7.6987C40.8001 7.15823 39.719 6.88811 38.4286 6.88811C37.3144 6.88811 36.3394 7.13611 35.5037 7.63192C34.668 8.12797 34.0229 8.82734 33.5685 9.73033C33.1139 10.6335 32.8868 11.677 32.8868 12.8614C32.8868 14.238 33.1689 15.5111 33.7335 16.6806C34.2979 17.8501 35.0603 18.7753 36.0205 19.4562C36.9809 20.1373 38.0182 20.4776 39.1324 20.4776C40.1881 20.4776 41.1043 20.1854 41.8814 19.6006C42.6584 19.0159 43.2522 18.1166 43.6628 16.9026C43.6628 16.8582 43.6921 16.8361 43.7507 16.8361C43.7947 16.8361 43.835 16.8435 43.8716 16.8582C43.9083 16.8731 43.9266 16.8952 43.9266 16.9248L43.6188 19.434C43.5895 19.6117 43.5565 19.7264 43.5198 19.7783C43.4831 19.8299 43.3989 19.8854 43.267 19.9448C41.9474 20.5072 40.5547 20.7886 39.0884 20.7886C37.3292 20.7886 35.8593 20.4296 34.6792 19.7116C33.4988 18.9936 32.6302 18.0795 32.073 16.9692C31.516 15.8591 31.2373 14.6896 31.2373 13.4608C31.2373 12.099 31.6112 10.8777 32.3589 9.79707C33.1067 8.7163 34.0962 7.87997 35.3278 7.28778C36.5594 6.69582 37.879 6.39972 39.2864 6.39972ZM49.0287 7.04357C48.1051 7.04357 47.4123 7.28054 46.9505 7.75423C46.4887 8.22792 46.1552 9.03475 45.9498 10.1744C45.9498 10.2042 45.9096 10.2189 45.8289 10.2189C45.7482 10.2189 45.708 10.2042 45.708 10.1744C45.7666 9.6416 45.8325 8.94584 45.9058 8.08714C45.9791 7.22863 46.0158 6.58477 46.0158 6.15529C46.0158 6.08126 46.0562 6.04425 46.1369 6.04425C46.2174 6.04425 46.2578 6.08126 46.2578 6.15529C46.2578 6.48097 46.6537 6.64391 47.4454 6.64391C48.6915 6.68834 50.165 6.71046 51.8658 6.71046C52.7308 6.71046 53.647 6.69581 54.6148 6.66603L56.1101 6.64391C56.638 6.64391 57.0301 6.60691 57.2867 6.53288C57.5432 6.45886 57.7082 6.31081 57.7815 6.08873C57.7962 6.0296 57.84 6 57.9134 6C57.9867 6 58.0233 6.0296 58.0233 6.08873C57.9795 6.51799 57.9355 7.1695 57.8914 8.04289C57.8474 8.91625 57.8255 9.62671 57.8255 10.1744C57.8255 10.2042 57.7815 10.2189 57.6936 10.2189C57.6056 10.2189 57.5615 10.2042 57.5615 10.1744C57.5175 9.01986 57.2831 8.2094 56.858 7.74295C56.4326 7.27668 55.729 7.04357 54.7466 7.04357C54.0868 7.04357 53.6177 7.07317 53.3392 7.13249C53.0607 7.19162 52.87 7.31755 52.7674 7.50984C52.6648 7.70232 52.6134 8.02802 52.6134 8.487V18.7234C52.6134 19.1824 52.6648 19.5155 52.7674 19.7227C52.87 19.9299 53.0678 20.0705 53.3611 20.1445C53.6543 20.2185 54.1161 20.2556 54.7466 20.2556C54.7907 20.2556 54.8126 20.3 54.8126 20.3889C54.8126 20.4776 54.7907 20.5221 54.7466 20.5221C54.2627 20.5221 53.8743 20.5146 53.581 20.5L51.8658 20.4776L50.2163 20.5C49.923 20.5146 49.52 20.5221 49.0068 20.5221C48.9775 20.5221 48.9628 20.4776 48.9628 20.3889C48.9628 20.3 48.9775 20.2556 49.0068 20.2556C49.6371 20.2556 50.0989 20.2185 50.3921 20.1445C50.6854 20.0705 50.887 19.9263 50.997 19.7116C51.1069 19.497 51.1619 19.1675 51.1619 18.7234V8.44257C51.1619 7.98354 51.1107 7.6617 51.008 7.47664C50.9053 7.29158 50.7147 7.17312 50.4362 7.12122C50.1577 7.06951 49.6885 7.04357 49.0287 7.04357ZM66.5781 20.7886C65.2147 20.7886 64.0014 20.4666 62.9386 19.8227C61.8756 19.1786 61.0546 18.3052 60.4755 17.2023C59.8964 16.0996 59.6067 14.8968 59.6067 13.5941C59.6067 12.0693 59.988 10.763 60.7504 9.675C61.5128 8.58677 62.4914 7.76892 63.6863 7.22117C64.8812 6.67345 66.1018 6.39972 67.3479 6.39972C68.7408 6.39972 69.965 6.72897 71.0206 7.38772C72.0761 8.04651 72.8863 8.91625 73.4507 9.99683C74.015 11.0776 74.2974 12.2247 74.2974 13.4387C74.2974 14.7858 73.9455 16.0218 73.2417 17.1468C72.5381 18.272 71.596 19.1601 70.4158 19.8114C69.2357 20.463 67.9563 20.7886 66.5781 20.7886ZM67.3479 20.3222C68.345 20.3222 69.2428 20.078 70.0419 19.5896C70.8409 19.101 71.4715 18.3831 71.9332 17.4357C72.395 16.4881 72.6259 15.3631 72.6259 14.0604C72.6259 12.6689 72.3693 11.4328 71.8563 10.3521C71.3431 9.27148 70.621 8.42768 69.6901 7.82083C68.7591 7.21375 67.6704 6.91042 66.4243 6.91042C64.8115 6.91042 63.5506 7.43582 62.6416 8.487C61.7325 9.53799 61.2781 10.9812 61.2781 12.8169C61.2781 14.2085 61.5347 15.4779 62.0479 16.625C62.5611 17.7724 63.2795 18.6754 64.2031 19.3341C65.1268 19.9929 66.1751 20.3222 67.3479 20.3222ZM79.4128 7.04357C78.4893 7.04357 77.7964 7.28054 77.3346 7.75423C76.8728 8.22792 76.534 9.03392 76.3339 10.1744C76.3289 10.2034 76.2937 10.2189 76.213 10.2189C76.1324 10.2189 76.0891 10.2038 76.0921 10.1744C76.1473 9.64141 76.2168 8.94561 76.2899 8.08714C76.363 7.22882 76.3999 6.58477 76.3999 6.15529C76.3999 6.08126 76.4403 6.04425 76.521 6.04425C76.6015 6.04425 76.6419 6.08126 76.6419 6.15529C76.6419 6.48097 77.0382 6.62679 77.8294 6.64391C79.0759 6.67086 80.5492 6.71046 82.2499 6.71046C83.1149 6.71046 84.0307 6.68032 84.9988 6.66603L86.4942 6.64391C87.0221 6.63607 87.4141 6.60691 87.6707 6.53288C87.9273 6.45886 88.0961 6.31183 88.1656 6.08873C88.1837 6.0308 88.2242 6 88.2975 6C88.3708 6 88.4126 6.0302 88.4074 6.08873C88.3692 6.51836 88.3196 7.1695 88.2756 8.04289C88.2316 8.91625 88.2097 9.62671 88.2097 10.1744C88.2097 10.2042 88.1656 10.2189 88.0778 10.2189C87.9897 10.2189 87.9467 10.2038 87.9457 10.1744C87.903 9.01986 87.6672 8.20922 87.242 7.74295C86.8169 7.27668 86.1131 7.04357 85.1307 7.04357C84.4709 7.04357 84.0016 7.07335 83.7233 7.13249C83.445 7.19144 83.2539 7.31773 83.1515 7.50984C83.0491 7.70214 82.9975 8.02839 82.9975 8.487V18.7234C82.9975 19.182 83.0489 19.5155 83.1515 19.7227C83.2541 19.9299 83.452 20.0705 83.7452 20.1445C84.0384 20.2185 84.5002 20.2556 85.1307 20.2556C85.1748 20.2556 85.1967 20.3 85.1967 20.3889C85.1967 20.4776 85.1748 20.5221 85.1307 20.5221C84.6468 20.5221 84.2584 20.5038 83.9651 20.5L82.2499 20.4776L80.6004 20.5C80.3071 20.5037 79.9041 20.5221 79.3909 20.5221C79.3616 20.5221 79.3469 20.4776 79.3469 20.3889C79.3469 20.3 79.3616 20.2556 79.3909 20.2556C80.0212 20.2556 80.483 20.2185 80.7763 20.1445C81.0695 20.0705 81.2711 19.9263 81.3811 19.7116C81.4911 19.497 81.546 19.1675 81.546 18.7234V8.44257C81.546 7.98354 81.4946 7.66151 81.392 7.47664C81.2896 7.29181 81.0986 7.17294 80.8203 7.12122C80.542 7.06974 80.0726 7.04357 79.4128 7.04357Z" fill="#0060DF"/>
<path fill-rule="evenodd" clip-rule="evenodd" d="M115.08 17.3686H118.165C119.274 17.3686 120.952 17.4495 121.283 17.4011C121.371 17.3884 121.375 17.3252 121.339 17.2333C120.985 16.3334 117.384 7.56233 117.34 7.47179C117.074 6.91624 116.959 6.49742 116.861 6.49825C116.782 6.49918 116.72 6.7374 116.71 6.75994L112.873 16.0618C112.623 16.6685 112.409 17.2422 112.409 17.3043C112.409 17.3417 112.453 17.3546 112.528 17.3665C112.834 17.4145 114.082 17.3686 115.08 17.3686ZM120.378 17.8806H114.134C113.186 17.8806 112.055 18.0332 111.254 18.9344C110.719 19.5358 110.526 20.6393 110.494 21.0614C110.478 21.2729 110.414 21.3783 110.328 21.3783C110.241 21.3783 110.198 21.2665 110.198 21.0426C110.198 20.6944 110.156 18.4907 110.079 17.459C110.071 17.3474 110.109 17.4264 110.186 17.3876C110.226 17.3674 111.62 17.3686 111.62 17.3686C111.822 17.3208 111.981 17.1444 112.031 17.0173L116.877 4.78327C117.083 4.2645 117.228 4 117.339 4C117.425 4 117.684 4.35903 117.783 4.5676C119.708 8.64087 121.257 12.9261 122.961 17.0838C122.99 17.1557 123.034 17.3051 123.095 17.3516L124.339 17.3713C124.4 17.359 124.438 17.3623 124.45 17.3808C124.462 17.3993 124.464 17.4465 124.45 17.5205C124.304 18.3165 124.312 20.2775 124.312 20.9239C124.312 21.1104 124.268 21.2037 124.182 21.2037C124.096 21.2037 124.03 21.1106 124.016 20.9239C123.821 18.3078 122.545 17.8806 120.378 17.8806Z" fill="#0060DF"/>
<path fill-rule="evenodd" clip-rule="evenodd" d="M132.169 12.0657C133.316 12.1536 134.241 12.5382 134.945 13.2195C135.648 13.9008 136 14.7468 136 15.7579C136 16.5343 135.811 17.2376 135.434 17.8676C135.057 18.4976 134.538 18.9921 133.878 19.351C133.218 19.7101 132.481 19.8895 131.669 19.8895C131.19 19.8895 130.667 19.8674 130.102 19.8235C129.898 19.8089 129.659 19.7942 129.383 19.7796C129.108 19.7649 128.803 19.7576 128.469 19.7576L126.989 19.7796C126.728 19.7942 126.358 19.8016 125.879 19.8016C125.85 19.8016 125.835 19.7576 125.835 19.6697C125.835 19.5818 125.85 19.5378 125.879 19.5378C126.43 19.5378 126.837 19.4976 127.098 19.417C127.359 19.3364 127.54 19.1935 127.642 18.9884C127.744 18.7833 127.794 18.4609 127.794 18.0214V7.84615C127.794 7.40651 127.747 7.08429 127.653 6.8792C127.559 6.67396 127.381 6.53115 127.12 6.45059C126.858 6.36998 126.459 6.32977 125.922 6.32977C125.879 6.32977 125.857 6.28571 125.857 6.19786C125.857 6.10993 125.879 6.066 125.922 6.066L126.989 6.08798C127.598 6.1173 128.092 6.13186 128.469 6.13186C128.73 6.13186 128.973 6.12453 129.198 6.10992C129.423 6.09531 129.615 6.08061 129.775 6.066C130.225 6.02199 130.646 6 131.038 6C132.256 6 133.171 6.26743 133.78 6.80211C134.389 7.33698 134.694 8.03654 134.694 8.90099C134.694 9.60422 134.469 10.2306 134.019 10.78C133.57 11.3294 132.953 11.758 132.169 12.0657ZM130.559 6.32977C130.181 6.32977 129.902 6.35894 129.721 6.41757C129.539 6.47619 129.405 6.61543 129.318 6.83513C129.231 7.05498 129.187 7.4065 129.187 7.89007V12.0657L130.167 12.0876C131.226 12.0876 132.01 11.813 132.518 11.2635C133.025 10.7141 133.279 9.98523 133.279 9.07677C133.279 8.25634 133.058 7.59333 132.616 7.08796C132.173 6.58245 131.487 6.32977 130.559 6.32977ZM131.342 19.4939C132.401 19.4939 133.189 19.2192 133.704 18.6697C134.219 18.1203 134.477 17.3328 134.477 16.3073C134.477 15.1937 134.154 14.2927 133.508 13.6041C132.862 12.9155 131.973 12.5638 130.842 12.5492C130.377 12.5345 129.826 12.5492 129.187 12.5931V18.0214C129.187 18.4025 129.242 18.6953 129.351 18.9004C129.459 19.1057 129.67 19.2558 129.982 19.351C130.294 19.4463 130.747 19.4939 131.342 19.4939Z" fill="#0060DF"/>
<path fill-rule="evenodd" clip-rule="evenodd" d="M12.9508 19.4719C12.9943 19.4719 13.016 19.5158 13.016 19.6037C13.016 19.6917 12.9943 19.7356 12.9508 19.7356C12.5009 19.7356 12.1382 19.7282 11.8625 19.7136L10.3606 19.6916L8.81528 19.7136C8.56856 19.7282 8.22036 19.7356 7.77047 19.7356C7.72697 19.7356 7.70524 19.6917 7.70524 19.6037C7.70524 19.5158 7.72697 19.4719 7.77047 19.4719C8.32193 19.4719 8.72451 19.4352 8.97844 19.3619C9.23246 19.2887 9.40293 19.1495 9.49003 18.9444C9.57703 18.7393 9.62062 18.4097 9.62062 17.9554V13.0327C8.41619 13.897 7.16826 14.3293 5.87682 14.3293C4.68695 14.3293 3.72924 14.0069 3.00369 13.3623C2.27818 12.7177 1.91538 11.8532 1.91538 10.769V7.78019C1.91538 7.34055 1.86825 7.01829 1.77399 6.81319C1.67959 6.60796 1.5055 6.46515 1.25157 6.38459C0.99768 6.30398 0.602218 6.26377 0.065368 6.26377C0.0218669 6.26377 0 6.2197 0 6.1319C0 6.04392 0.0218669 6 0.065368 6L0.97958 6.02198C1.55993 6.05129 2.08231 6.0659 2.54667 6.0659C2.98196 6.0659 3.48992 6.05129 4.07027 6.02198L4.91911 6C4.96275 6 4.98447 6.04392 4.98447 6.1319C4.98447 6.2197 4.96275 6.26377 4.91911 6.26377C4.45479 6.26377 4.11023 6.30769 3.88524 6.39549C3.66034 6.48342 3.50801 6.63361 3.42817 6.84603C3.34838 7.0585 3.30851 7.38456 3.30851 7.82407V9.99985C3.30851 11.2452 3.57687 12.1902 4.11377 12.8348C4.65075 13.4794 5.41976 13.8018 6.42098 13.8018C7.50928 13.8018 8.57582 13.4355 9.62062 12.7029V7.82407C9.62062 7.38456 9.58065 7.0585 9.50086 6.84603C9.42103 6.63361 9.27234 6.48342 9.05474 6.39549C8.83705 6.30769 8.48872 6.26377 8.00993 6.26377C7.9809 6.26377 7.96643 6.2197 7.96643 6.1319C7.96643 6.04392 7.9809 6 8.00993 6L8.96764 6.02198C9.54799 6.05129 10.0125 6.0659 10.3606 6.0659C10.7524 6.0659 11.2531 6.05129 11.8625 6.02198L12.9508 6C12.9943 6 13.016 6.04392 13.016 6.1319C13.016 6.2197 12.9943 6.26377 12.9508 6.26377C12.3994 6.26377 11.9894 6.30398 11.7209 6.38459C11.4526 6.46515 11.2712 6.60796 11.1769 6.81319C11.0825 7.01829 11.0354 7.34055 11.0354 7.78019V17.9554C11.0354 18.3949 11.0825 18.721 11.1769 18.9335C11.2712 19.1459 11.4526 19.2887 11.7209 19.3619C11.9894 19.4352 12.3994 19.4719 12.9508 19.4719Z" fill="#0060DF"/>
<path fill-rule="evenodd" clip-rule="evenodd" d="M17.681 8.34604L17.6462 17.6137C18.4582 16.6017 19.9519 14.7176 22.1264 11.9621C24.301 9.20655 25.5105 7.59986 25.9174 7.0892C26.4959 6.36237 26.8743 6 27.0481 6C27.1177 6 27.1671 6.0327 27.1961 6.09819C27.2251 6.16363 27.2515 6.32147 27.2745 6.57133C27.2974 6.82099 27.3091 7.19635 27.3091 7.69624C27.3091 12.0413 27.3262 15.3273 27.3614 17.5532C27.3719 18.2193 27.4285 18.92 27.5267 19.1876C27.6249 19.4552 27.8088 19.6129 28.0748 19.6608C28.202 19.6835 28.5856 19.7262 28.91 19.7486C28.9901 19.754 29.1128 19.7606 29.16 19.762C29.16 19.762 29.1614 19.9689 29.1495 19.9743C29.1083 19.993 28.9865 19.9985 28.91 19.9985C28.6665 19.9985 28.0567 19.9729 27.3962 19.9553C26.7355 19.9382 26.3754 19.9286 26.3174 19.9286C26.213 19.9286 25.9835 19.9382 25.6303 19.9553C25.277 19.9729 24.5816 20.0232 24.3497 20.0232C24.2899 20.0232 24.1105 20.0046 24.0883 19.9865C24.069 19.9701 24.0384 19.7739 24.0811 19.7342C24.0998 19.7169 24.3981 19.729 24.6895 19.7183C24.9462 19.7087 25.1994 19.6734 25.2562 19.6608C25.4862 19.6097 25.6421 19.4223 25.7172 19.0892C25.7922 18.7564 25.8337 17.9811 25.8476 17.2317C25.8676 16.1487 25.8857 14.5857 25.8912 12.5444C25.8968 10.5031 25.9058 9.07723 25.9174 8.26761C25.0358 9.39852 23.489 11.4357 21.1172 14.4352C18.7456 17.4349 17.4027 19.1136 17.0895 19.4708C16.7879 19.8041 16.5732 19.9707 16.4457 19.9707C16.3529 19.9707 16.292 19.9142 16.2631 19.8011C16.2341 19.6879 16.2195 19.4588 16.2195 19.1136V8.72103C16.2195 8.07824 16.1906 7.60506 16.1326 7.30155C16.0745 6.99798 15.9992 6.80142 15.9063 6.71223C15.8135 6.62304 15.6631 6.55875 15.4538 6.52462C15.3731 6.51144 14.9957 6.47954 14.8681 6.46776C14.7408 6.45598 14.6593 6.45241 14.6247 6.44999C14.5753 6.44628 14.5327 6.44243 14.5053 6.42406C14.4738 6.40329 14.5044 6.2179 14.5409 6.20375C14.6449 6.16424 15.9394 6.24224 16.1064 6.24804C16.6107 6.2658 16.8981 6.27476 16.9678 6.27476C17.1649 6.27476 17.4667 6.2658 17.8723 6.24804C18.2783 6.23028 19.0993 6.20055 19.2499 6.20055C19.3289 6.20055 19.4691 6.2024 19.5156 6.21571C19.5346 6.22091 19.5599 6.40527 19.5404 6.41626C19.5062 6.43602 19.3797 6.44521 19.3196 6.45059C19.0878 6.47197 18.3936 6.50945 18.3248 6.52462C18.0691 6.58092 17.9015 6.71821 17.8202 6.92656C17.7389 7.1349 17.6926 7.60807 17.681 8.34604Z" fill="#0060DF"/>
<path fill-rule="evenodd" clip-rule="evenodd" d="M104.388 19.7356C104.447 19.7356 104.475 19.7794 104.475 19.8673C104.475 19.9552 104.447 19.9992 104.388 19.9992C104.113 19.9992 103.685 19.9846 103.104 19.9552C102.524 19.9261 102.103 19.9113 101.842 19.9113C101.523 19.9113 101.116 19.9261 100.623 19.9552C100.159 19.9846 99.803 19.9992 99.5563 19.9992C99.4984 19.9992 99.4693 19.9552 99.4693 19.8673C99.4693 19.7794 99.4984 19.7356 99.5563 19.7356C100.093 19.7356 100.485 19.6843 100.732 19.5817C100.978 19.4791 101.102 19.3033 101.102 19.0543C101.102 18.8491 101.018 18.5289 100.819 18.1093L98.9087 14.0813L93.642 14.0809L92.33 17.2081C92.1224 17.7031 92.0254 18.1165 92.0254 18.4389C92.0254 19.3033 92.7364 19.7356 94.1584 19.7356C94.2309 19.7356 94.2672 19.7794 94.2672 19.8673C94.2672 19.9552 94.2309 19.9992 94.1584 19.9992C93.8972 19.9992 93.5199 19.9846 93.0266 19.9552C92.4752 19.9261 91.9963 19.9113 91.5901 19.9113C91.2128 19.9113 90.7775 19.9261 90.284 19.9552C89.8487 19.9846 89.486 19.9992 89.1957 19.9992C89.1232 19.9992 89.0869 19.9552 89.0869 19.8673C89.0869 19.7794 89.1232 19.7356 89.1957 19.7356C89.6021 19.7356 89.9467 19.6587 90.2296 19.5048C90.5125 19.351 90.7811 19.0798 91.035 18.6916C91.2888 18.3034 91.5682 17.743 91.873 17.0104L96.4655 6.06576C96.4946 6.02193 96.5454 6 96.6179 6C96.6904 6 96.7341 6.02193 96.7486 6.06576L101.885 16.9885C102.379 18.0727 102.8 18.8014 103.148 19.1751C103.496 19.5487 103.91 19.7356 104.388 19.7356ZM93.8378 13.6193L98.6911 13.6197L96.1392 8.08769L93.8378 13.6193Z" fill="#0060DF"/>
</svg>
